{
  "accessors": [
    {
      "bufferView": 2,
      "componentType": 5126,
      "count": 8242,
      "max": [
        7.31804084777832,
        24.69900131225586,
        5.983739376068115
      ],
      "min": [
        -7.436141014099121,
        0.0,
        -8.342395782470703
      ],
      "type": "VEC3"
    },
    {
      "bufferView": 2,
      "byteOffset": 98904,
      "componentType": 5126,
      "count": 8242,
      "max": [
        0.9994431734085083,
        0.9995083212852478,
        0.9997765421867371
      ],
      "min": [
        -0.999954342842102,
        -0.9981838464736938,
        -0.9990043640136719
      ],
      "type": "VEC3"
    },
    {
      "bufferView": 3,
      "componentType": 5126,
      "count": 8242,
      "max": [
        0.9994363188743591,
        0.9999465346336365,
        0.9999995231628418,
        1.0
      ],
      "min": [
        -0.9985859990119934,
        -0.9998963475227356,
        -0.9992915987968445,
        1.0
      ],
      "type": "VEC4"
    },
    {
      "bufferView": 1,
      "componentType": 5126,
      "count": 8242,
      "max": [
        0.9959712624549866,
        0.9961193203926086
      ],
      "min": [
        0.004521272610872984,
        0.0038362741470336914
      ],
      "type": "VEC2"
    },
    {
      "bufferView": 1,
      "byteOffset": 65936,
      "componentType": 5126,
      "count": 8242,
      "max": [
        0.9959712624549866,
        0.9961193203926086
      ],
      "min": [
        0.004521272610872984,
        0.0038362741470336914
      ],
      "type": "VEC2"
    },
    {
      "bufferView": 1,
      "byteOffset": 131872,
      "componentType": 5126,
      "count": 8242,
      "max": [
        0.9959712624549866,
        0.9961193203926086
      ],
      "min": [
        0.004521272610872984,
        0.0038362741470336914
      ],
      "type": "VEC2"
    },
    {
      "bufferView": 1,
      "byteOffset": 197808,
      "componentType": 5126,
      "count": 8242,
      "max": [
        0.9959712624549866,
        0.9961193203926086
      ],
      "min": [
        0.004521272610872984,
        0.0038362741470336914
      ],
      "type": "VEC2"
    },
    {
      "bufferView": 1,
      "byteOffset": 263744,
      "componentType": 5126,
      "count": 8242,
      "max": [
        0.9959712624549866,
        0.9961193203926086
      ],
      "min": [
        0.004521272610872984,
        0.0038362741470336914
      ],
      "type": "VEC2"
    },
    {
      "bufferView": 0,
      "componentType": 5125,
      "count": 44937,
      "type": "SCALAR"
    }
  ],
  "asset": {
    "extras": {
      "author": "sahilseth (https://sketchfab.com/sahilseth)",
      "license": "CC-BY-4.0 (http://creativecommons.org/licenses/by/4.0/)",
      "source": "https://sketchfab.com/3d-models/human-heart-30f93d9dae4948fe85cd4d60ac40c23f",
      "title": "Human Heart"
    },
    "generator": "Sketchfab-13.79.0",
    "version": "2.0"
  },
  "bufferViews": [
    {
      "buffer": 0,
      "byteLength": 179748,
      "name": "floatBufferViews",
      "target": 34963
    },
    {
      "buffer": 0,
      "byteLength": 329680,
      "byteOffset": 179748,
      "byteStride": 8,
      "name": "floatBufferViews",
      "target": 34962
    },
    {
      "buffer": 0,
      "byteLength": 197808,
      "byteOffset": 509428,
      "byteStride": 12,
      "name": "floatBufferViews",
      "target": 34962
    },
    {
      "buffer": 0,
      "byteLength": 131872,
      "byteOffset": 707236,
      "byteStride": 16,
      "name": "floatBufferViews",
      "target": 34962
    }
  ],
  "buffers": [
    {
      "byteLength": 839108,
      "uri": "scene.bin"
    }
  ],
  "extensionsRequired": [
    "KHR_materials_pbrSpecularGlossiness"
  ],
  "extensionsUsed": [
    "KHR_materials_pbrSpecularGlossiness"
  ],
  "images": [
    {
      "uri": "textures/material_0_diffuse.png"
    },
    {
      "uri": "textures/material_0_specularGlossiness.png"
    },
    {
      "uri": "textures/material_0_normal.png"
    },
    {
      "uri": "textures/material_0_occlusion.png"
    }
  ],
  "materials": [
    {
      "doubleSided": true,
      "extensions": {
        "KHR_materials_pbrSpecularGlossiness": {
          "diffuseFactor": [
            1.0,
            1.0,
            1.0,
            1.0
          ],
          "diffuseTexture": {
            "index": 0
          },
          "glossinessFactor": 1.0,
          "specularFactor": [
            1.0,
            1.0,
            1.0
          ],
          "specularGlossinessTexture": {
            "index": 1
          }
        }
      },
      "name": "material_0",
      "normalTexture": {
        "index": 2
      },
      "occlusionTexture": {
        "index": 3
      }
    }
  ],
  "meshes": [
    {
      "name": "Object_0",
      "primitives": [
        {
          "attributes": {
            "NORMAL": 1,
            "POSITION": 0,
            "TANGENT": 2,
            "TEXCOORD_0": 3,
            "TEXCOORD_1": 4,
            "TEXCOORD_2": 5,
            "TEXCOORD_3": 6,
            "TEXCOORD_4": 7
          },
          "indices": 8,
          "material": 0,
          "mode": 4
        }
      ]
    }
  ],
  "nodes": [
    {
      "children": [
        1
      ],
      "matrix": [
        1.0,
        0.0,
        0.0,
        0.0,
        0.0,
        2.220446049250313e-16,
        -1.0,
        0.0,
        0.0,
        1.0,
        2.220446049250313e-16,
        0.0,
        0.0,
        0.0,
        0.0,
        1.0
      ],
      "name": "Sketchfab_model"
    },
    {
      "children": [
        2
      ],
      "name": "root"
    },
    {
      "children": [
        3
      ],
      "matrix": [
        1.0,
        0.0,
        0.0,
        0.0,
        0.0,
        2.220446049250313e-16,
        1.0,
        0.0,
        0.0,
        -1.0,
        2.220446049250313e-16,
        0.0,
        0.0,
        0.0,
        0.0,
        1.0
      ],
      "name": "GLTF_SceneRootNode"
    },
    {
      "children": [
        4
      ],
      "matrix": [
        0.009999999776482582,
        0.0,
        0.0,
        0.0,
        0.0,
        0.009999999776482582,
        0.0,
        0.0,
        0.0,
        0.0,
        0.009999999776482582,
        0.0,
        0.0,
        0.0,
        0.0,
        1.0
      ],
      "name": "RootNode.0_0"
    },
    {
      "children": [
        5
      ],
      "name": "human_heart.1_1"
    },
    {
      "mesh": 0,
      "name": "Object_5"
    }
  ],
  "samplers": [
    {
      "magFilter": 9729,
      "minFilter": 9987,
      "wrapS": 10497,
      "wrapT": 10497
    }
  ],
  "scene": 0,
  "scenes": [
    {
      "name": "Sketchfab_Scene",
      "nodes": [
        0
      ]
    }
  ],
  "textures": [
    {
      "sampler": 0,
      "source": 0
    },
    {
      "sampler": 0,
      "source": 1
    },
    {
      "sampler": 0,
      "source": 2
    },
    {
      "sampler": 0,
      "source": 3
    }
  ]
}
